<svg width="19" height="19" viewBox="0 0 19 19" fill="none" xmlns="http://www.w3.org/2000/svg">
<path d="M1.97917 3.3645C1.97917 3.20703 2.04173 3.05601 2.15308 2.94466C2.26443 2.83331 2.41545 2.77075 2.57292 2.77075H3.01467C3.76676 2.77075 4.218 3.27663 4.4753 3.74688C4.64709 4.06038 4.77138 4.42375 4.86876 4.75309C4.89509 4.75101 4.9215 4.74995 4.94792 4.74992H14.8422C15.4993 4.74992 15.9743 5.3785 15.7938 6.01104L14.3466 11.0848C14.2168 11.5399 13.9423 11.9404 13.5646 12.2255C13.187 12.5106 12.7266 12.6649 12.2534 12.665H7.54459C7.0676 12.665 6.60381 12.5084 6.2245 12.2192C5.84519 11.93 5.57136 11.5242 5.44509 11.0643L4.84342 8.86975L3.84592 5.50675L3.84513 5.50042C3.72163 5.05154 3.60605 4.63117 3.43346 4.31767C3.268 4.01288 3.135 3.95825 3.01546 3.95825H2.57292C2.41545 3.95825 2.26443 3.8957 2.15308 3.78435C2.04173 3.673 1.97917 3.52197 1.97917 3.3645ZM5.9953 8.58159L6.58984 10.75C6.70859 11.179 7.09888 11.4775 7.54459 11.4775H12.2534C12.4685 11.4775 12.6778 11.4074 12.8495 11.2778C13.0212 11.1483 13.146 10.9663 13.205 10.7595L14.5801 5.93742H5.21313L5.98421 8.53963L5.9953 8.58159Z" fill="#2F1AC4"/>
<path d="M8.70834 15.0416C8.70834 15.4615 8.54152 15.8642 8.24459 16.1612C7.94766 16.4581 7.54493 16.6249 7.12501 16.6249C6.70508 16.6249 6.30235 16.4581 6.00542 16.1612C5.70849 15.8642 5.54167 15.4615 5.54167 15.0416C5.54167 14.6217 5.70849 14.2189 6.00542 13.922C6.30235 13.6251 6.70508 13.4583 7.12501 13.4583C7.54493 13.4583 7.94766 13.6251 8.24459 13.922C8.54152 14.2189 8.70834 14.6217 8.70834 15.0416ZM7.52084 15.0416C7.52084 14.9366 7.47913 14.8359 7.4049 14.7617C7.33067 14.6875 7.22999 14.6458 7.12501 14.6458C7.02002 14.6458 6.91934 14.6875 6.84511 14.7617C6.77088 14.8359 6.72917 14.9366 6.72917 15.0416C6.72917 15.1466 6.77088 15.2472 6.84511 15.3215C6.91934 15.3957 7.02002 15.4374 7.12501 15.4374C7.22999 15.4374 7.33067 15.3957 7.4049 15.3215C7.47913 15.2472 7.52084 15.1466 7.52084 15.0416Z" fill="#2F1AC4"/>
<path d="M14.25 15.0416C14.25 15.4615 14.0832 15.8642 13.7863 16.1612C13.4893 16.4581 13.0866 16.6249 12.6667 16.6249C12.2468 16.6249 11.844 16.4581 11.5471 16.1612C11.2502 15.8642 11.0833 15.4615 11.0833 15.0416C11.0833 14.6217 11.2502 14.2189 11.5471 13.922C11.844 13.6251 12.2468 13.4583 12.6667 13.4583C13.0866 13.4583 13.4893 13.6251 13.7863 13.922C14.0832 14.2189 14.25 14.6217 14.25 15.0416ZM13.0625 15.0416C13.0625 14.9366 13.0208 14.8359 12.9466 14.7617C12.8723 14.6875 12.7717 14.6458 12.6667 14.6458C12.5617 14.6458 12.461 14.6875 12.3868 14.7617C12.3125 14.8359 12.2708 14.9366 12.2708 15.0416C12.2708 15.1466 12.3125 15.2472 12.3868 15.3215C12.461 15.3957 12.5617 15.4374 12.6667 15.4374C12.7717 15.4374 12.8723 15.3957 12.9466 15.3215C13.0208 15.2472 13.0625 15.1466 13.0625 15.0416Z" fill="#2F1AC4"/>
</svg>
