<svg width="38" height="38" viewBox="0 0 38 38" fill="none" xmlns="http://www.w3.org/2000/svg">
<g filter="url(#filter0_d_4172_85)">
<circle cx="19" cy="19" r="15" fill="#EEEFFB"/>
</g>
<path d="M10.9792 14.3645C10.9792 14.207 11.0417 14.056 11.1531 13.9447C11.2644 13.8333 11.4154 13.7708 11.5729 13.7708H12.0147C12.7667 13.7708 13.218 14.2766 13.4753 14.7469C13.6471 15.0604 13.7714 15.4238 13.8687 15.7531C13.8951 15.751 13.9215 15.7499 13.9479 15.7499H23.8422C24.4992 15.7499 24.9742 16.3785 24.7937 17.011L23.3466 22.0848C23.2168 22.5399 22.9423 22.9404 22.5646 23.2255C22.1869 23.5106 21.7266 23.6649 21.2534 23.665H16.5446C16.0676 23.665 15.6038 23.5084 15.2245 23.2192C14.8452 22.93 14.5713 22.5242 14.4451 22.0643L13.8434 19.8698L12.8459 16.5068L12.8451 16.5004C12.7216 16.0515 12.606 15.6312 12.4334 15.3177C12.268 15.0129 12.135 14.9583 12.0154 14.9583H11.5729C11.4154 14.9583 11.2644 14.8957 11.1531 14.7843C11.0417 14.673 10.9792 14.522 10.9792 14.3645ZM14.9953 19.5816L15.5898 21.75C15.7086 22.179 16.0989 22.4775 16.5446 22.4775H21.2534C21.4685 22.4775 21.6777 22.4074 21.8495 22.2778C22.0212 22.1483 22.146 21.9663 22.205 21.7595L23.5801 16.9374H14.2131L14.9842 19.5396L14.9953 19.5816Z" fill="#2F1AC4"/>
<path d="M17.7083 26.0416C17.7083 26.4615 17.5415 26.8642 17.2446 27.1612C16.9476 27.4581 16.5449 27.6249 16.125 27.6249C15.7051 27.6249 15.3023 27.4581 15.0054 27.1612C14.7085 26.8642 14.5417 26.4615 14.5417 26.0416C14.5417 25.6217 14.7085 25.2189 15.0054 24.922C15.3023 24.6251 15.7051 24.4583 16.125 24.4583C16.5449 24.4583 16.9476 24.6251 17.2446 24.922C17.5415 25.2189 17.7083 25.6217 17.7083 26.0416ZM16.5208 26.0416C16.5208 25.9366 16.4791 25.8359 16.4049 25.7617C16.3307 25.6875 16.23 25.6458 16.125 25.6458C16.02 25.6458 15.9193 25.6875 15.8451 25.7617C15.7709 25.8359 15.7292 25.9366 15.7292 26.0416C15.7292 26.1466 15.7709 26.2472 15.8451 26.3215C15.9193 26.3957 16.02 26.4374 16.125 26.4374C16.23 26.4374 16.3307 26.3957 16.4049 26.3215C16.4791 26.2472 16.5208 26.1466 16.5208 26.0416Z" fill="#2F1AC4"/>
<path d="M23.25 26.0416C23.25 26.4615 23.0832 26.8642 22.7862 27.1612C22.4893 27.4581 22.0866 27.6249 21.6666 27.6249C21.2467 27.6249 20.844 27.4581 20.5471 27.1612C20.2501 26.8642 20.0833 26.4615 20.0833 26.0416C20.0833 25.6217 20.2501 25.2189 20.5471 24.922C20.844 24.6251 21.2467 24.4583 21.6666 24.4583C22.0866 24.4583 22.4893 24.6251 22.7862 24.922C23.0832 25.2189 23.25 25.6217 23.25 26.0416ZM22.0625 26.0416C22.0625 25.9366 22.0208 25.8359 21.9465 25.7617C21.8723 25.6875 21.7716 25.6458 21.6666 25.6458C21.5617 25.6458 21.461 25.6875 21.3867 25.7617C21.3125 25.8359 21.2708 25.9366 21.2708 26.0416C21.2708 26.1466 21.3125 26.2472 21.3867 26.3215C21.461 26.3957 21.5617 26.4374 21.6666 26.4374C21.7716 26.4374 21.8723 26.3957 21.9465 26.3215C22.0208 26.2472 22.0625 26.1466 22.0625 26.0416Z" fill="#2F1AC4"/>
<defs>
<filter id="filter0_d_4172_85" x="0" y="0" width="38" height="38" filterUnits="userSpaceOnUse" color-interpolation-filters="sRGB">
<feFlood flood-opacity="0" result="BackgroundImageFix"/>
<feColorMatrix in="SourceAlpha" type="matrix" values="0 0 0 0 0 0 0 0 0 0 0 0 0 0 0 0 0 0 127 0" result="hardAlpha"/>
<feOffset/>
<feGaussianBlur stdDeviation="2"/>
<feColorMatrix type="matrix" values="0 0 0 0 0 0 0 0 0 0 0 0 0 0 0 0 0 0 0.05 0"/>
<feBlend mode="normal" in2="BackgroundImageFix" result="effect1_dropShadow_4172_85"/>
<feBlend mode="normal" in="SourceGraphic" in2="effect1_dropShadow_4172_85" result="shape"/>
</filter>
</defs>
</svg>
