<svg width="15" height="15" viewBox="0 0 15 15" fill="none" xmlns="http://www.w3.org/2000/svg">
<path d="M0.979156 1.3645C0.979156 1.20703 1.04171 1.05601 1.15306 0.944657C1.26441 0.833308 1.41543 0.770752 1.57291 0.770752H2.01466C2.76674 0.770752 3.21799 1.27663 3.47528 1.74688C3.64707 2.06038 3.77136 2.42375 3.86874 2.75309C3.89508 2.75101 3.92149 2.74995 3.94791 2.74992H13.8422C14.4992 2.74992 14.9742 3.3785 14.7937 4.01104L13.3466 9.08484C13.2168 9.53993 12.9423 9.94035 12.5646 10.2255C12.1869 10.5106 11.7266 10.6649 11.2534 10.665H6.54457C6.06759 10.665 5.6038 10.5084 5.22449 10.2192C4.84518 9.92999 4.57134 9.52422 4.44507 9.06425L3.84341 6.86975L2.84591 3.50675L2.84511 3.50042C2.72161 3.05154 2.60603 2.63117 2.43345 2.31767C2.26799 2.01288 2.13499 1.95825 2.01545 1.95825H1.57291C1.41543 1.95825 1.26441 1.8957 1.15306 1.78435C1.04171 1.673 0.979156 1.52197 0.979156 1.3645ZM4.99528 6.58159L5.58982 8.74996C5.70857 9.17904 6.09886 9.4775 6.54457 9.4775H11.2534C11.4685 9.4775 11.6777 9.40741 11.8495 9.27785C12.0212 9.14828 12.146 8.9663 12.205 8.75946L13.5801 3.93742H4.21311L4.9842 6.53963L4.99528 6.58159Z" fill="#2F1AC4"/>
<path d="M7.70832 13.0416C7.70832 13.4615 7.54151 13.8642 7.24458 14.1612C6.94764 14.4581 6.54492 14.6249 6.12499 14.6249C5.70506 14.6249 5.30234 14.4581 5.0054 14.1612C4.70847 13.8642 4.54166 13.4615 4.54166 13.0416C4.54166 12.6217 4.70847 12.2189 5.0054 11.922C5.30234 11.6251 5.70506 11.4583 6.12499 11.4583C6.54492 11.4583 6.94764 11.6251 7.24458 11.922C7.54151 12.2189 7.70832 12.6217 7.70832 13.0416ZM6.52082 13.0416C6.52082 12.9366 6.47912 12.8359 6.40489 12.7617C6.33065 12.6875 6.22997 12.6458 6.12499 12.6458C6.02001 12.6458 5.91933 12.6875 5.84509 12.7617C5.77086 12.8359 5.72916 12.9366 5.72916 13.0416C5.72916 13.1466 5.77086 13.2472 5.84509 13.3215C5.91933 13.3957 6.02001 13.4374 6.12499 13.4374C6.22997 13.4374 6.33065 13.3957 6.40489 13.3215C6.47912 13.2472 6.52082 13.1466 6.52082 13.0416Z" fill="#2F1AC4"/>
<path d="M13.25 13.0416C13.25 13.4615 13.0832 13.8642 12.7862 14.1612C12.4893 14.4581 12.0866 14.6249 11.6666 14.6249C11.2467 14.6249 10.844 14.4581 10.5471 14.1612C10.2501 13.8642 10.0833 13.4615 10.0833 13.0416C10.0833 12.6217 10.2501 12.2189 10.5471 11.922C10.844 11.6251 11.2467 11.4583 11.6666 11.4583C12.0866 11.4583 12.4893 11.6251 12.7862 11.922C13.0832 12.2189 13.25 12.6217 13.25 13.0416ZM12.0625 13.0416C12.0625 12.9366 12.0208 12.8359 11.9465 12.7617C11.8723 12.6875 11.7716 12.6458 11.6666 12.6458C11.5617 12.6458 11.461 12.6875 11.3867 12.7617C11.3125 12.8359 11.2708 12.9366 11.2708 13.0416C11.2708 13.1466 11.3125 13.2472 11.3867 13.3215C11.461 13.3957 11.5617 13.4374 11.6666 13.4374C11.7716 13.4374 11.8723 13.3957 11.9465 13.3215C12.0208 13.2472 12.0625 13.1466 12.0625 13.0416Z" fill="#2F1AC4"/>
</svg>
