<svg width="17" height="17" viewBox="0 0 17 17" fill="none" xmlns="http://www.w3.org/2000/svg">
<path d="M14.28 3.26533C13.528 2.51308 12.5309 2.05572 11.4702 1.97643C10.4095 1.89713 9.35552 2.20117 8.5 2.83324C7.59876 2.1629 6.477 1.85894 5.36061 1.98256C4.24423 2.10618 3.21615 2.64821 2.4834 3.49949C1.75065 4.35077 1.36767 5.44807 1.41157 6.57042C1.45547 7.69277 1.923 8.7568 2.72 9.54824L7.99709 14.8253C8.06293 14.8917 8.14128 14.9444 8.22759 14.9804C8.31391 15.0163 8.40649 15.0348 8.5 15.0348C8.59351 15.0348 8.68609 15.0163 8.77241 14.9804C8.85873 14.9444 8.93707 14.8917 9.00292 14.8253L14.28 9.54824C14.6927 9.1358 15.0201 8.64607 15.2435 8.10704C15.4669 7.56802 15.5818 6.99026 15.5818 6.40678C15.5818 5.82331 15.4669 5.24555 15.2435 4.70652C15.0201 4.1675 14.6927 3.67777 14.28 3.26533ZM13.2813 8.54949L8.5 13.3237L3.71875 8.54949C3.29742 8.1264 3.0104 7.58832 2.89371 7.00273C2.77701 6.41715 2.83584 5.81014 3.0628 5.25786C3.28977 4.70558 3.67476 4.23262 4.1695 3.89831C4.66423 3.564 5.24667 3.38322 5.84375 3.37866C6.64142 3.38061 7.4057 3.69906 7.96875 4.26408C8.0346 4.33047 8.11294 4.38316 8.19926 4.41912C8.28558 4.45508 8.37816 4.4736 8.47167 4.4736C8.56518 4.4736 8.65776 4.45508 8.74408 4.41912C8.83039 4.38316 8.90874 4.33047 8.97459 4.26408C9.55423 3.76178 10.3031 3.49847 11.0695 3.52743C11.836 3.55638 12.5628 3.87545 13.1029 4.42004C13.643 4.96464 13.956 5.69409 13.9786 6.46075C14.0012 7.22742 13.7317 7.97403 13.2246 8.54949H13.2813Z" fill="url(#paint0_linear_4172_81)"/>
<defs>
<linearGradient id="paint0_linear_4172_81" x1="1.40817" y1="1.95557" x2="14.4453" y2="16.0836" gradientUnits="userSpaceOnUse">
<stop stop-color="#1389FF"/>
<stop offset="1" stop-color="#1DB4E7"/>
</linearGradient>
</defs>
</svg>
