<svg width="15" height="15" viewBox="0 0 15 15" fill="none" xmlns="http://www.w3.org/2000/svg">
<path d="M9.375 6.24988H7.5V4.37488C7.5 4.20912 7.43415 4.05015 7.31694 3.93294C7.19973 3.81573 7.04076 3.74988 6.875 3.74988C6.70924 3.74988 6.55027 3.81573 6.43306 3.93294C6.31585 4.05015 6.25 4.20912 6.25 4.37488V6.24988H4.375C4.20924 6.24988 4.05027 6.31573 3.93306 6.43294C3.81585 6.55015 3.75 6.70912 3.75 6.87488C3.75 7.04064 3.81585 7.19961 3.93306 7.31682C4.05027 7.43403 4.20924 7.49988 4.375 7.49988H6.25V9.37488C6.25 9.54064 6.31585 9.69961 6.43306 9.81682C6.55027 9.93403 6.70924 9.99988 6.875 9.99988C7.04076 9.99988 7.19973 9.93403 7.31694 9.81682C7.43415 9.69961 7.5 9.54064 7.5 9.37488V7.49988H9.375C9.54076 7.49988 9.69973 7.43403 9.81694 7.31682C9.93415 7.19961 10 7.04064 10 6.87488C10 6.70912 9.93415 6.55015 9.81694 6.43294C9.69973 6.31573 9.54076 6.24988 9.375 6.24988ZM13.5688 12.6811L11.25 10.3811C12.1501 9.25889 12.5859 7.83444 12.468 6.40069C12.3501 4.96694 11.6873 3.63287 10.616 2.67278C9.54461 1.7127 8.14613 1.19957 6.70808 1.23892C5.27003 1.27827 3.9017 1.86711 2.88446 2.88434C1.86723 3.90158 1.2784 5.2699 1.23905 6.70796C1.1997 8.14601 1.71282 9.54449 2.6729 10.6158C3.63299 11.6872 4.96706 12.35 6.40081 12.4679C7.83456 12.5858 9.25901 12.1499 10.3813 11.2499L12.6813 13.5499C12.7394 13.6085 12.8085 13.655 12.8846 13.6867C12.9608 13.7184 13.0425 13.7348 13.125 13.7348C13.2075 13.7348 13.2892 13.7184 13.3654 13.6867C13.4415 13.655 13.5106 13.6085 13.5688 13.5499C13.6814 13.4333 13.7444 13.2776 13.7444 13.1155C13.7444 12.9534 13.6814 12.7977 13.5688 12.6811ZM6.875 11.2499C6.00971 11.2499 5.16385 10.9933 4.44438 10.5126C3.72492 10.0318 3.16416 9.34855 2.83303 8.54912C2.50189 7.74969 2.41526 6.87003 2.58407 6.02136C2.75288 5.17269 3.16955 4.39314 3.78141 3.78129C4.39326 3.16943 5.17281 2.75275 6.02148 2.58394C6.87015 2.41513 7.74981 2.50177 8.54924 2.83291C9.34867 3.16404 10.0319 3.72479 10.5127 4.44426C10.9934 5.16372 11.25 6.00959 11.25 6.87488C11.25 8.0352 10.7891 9.148 9.96859 9.96847C9.14812 10.7889 8.03532 11.2499 6.875 11.2499Z" fill="url(#paint0_linear_4172_83)"/>
<defs>
<linearGradient id="paint0_linear_4172_83" x1="1.23694" y1="1.23682" x2="13.7349" y2="13.7442" gradientUnits="userSpaceOnUse">
<stop stop-color="#1389FF"/>
<stop offset="1" stop-color="#1DB4E7"/>
</linearGradient>
</defs>
</svg>
